<svg width="23" height="24" viewBox="0 0 23 24" fill="none" xmlns="http://www.w3.org/2000/svg">
<path d="M9.72949 2.91634e-08C9.01089 2.91634e-08 8.18601 0.183829 7.2245 0.613452C11.1313 1.05753 10.5594 5.3331 7.93804 6.09734C4.62842 7.06295 1.29299 4.87353 2.96147 0.974913C0.953934 1.95344 0.827419 5.14721 2.30713 6.73248C5.82778 10.4917 1.55665 13.1303 0.562245 9.08714C-1.42044 15.5676 1.73073 24 11.7689 24C24.4558 24 26.0397 4.65149 18.3072 2.56844C19.6482 4.79091 17.6442 6.23159 17.0471 6.3452C14.451 6.85641 14.1069 -0.000516344 9.72949 2.91634e-08ZM11.6272 6.09734C11.8549 6.09734 12.1029 6.15414 12.275 6.24708L18.1402 9.71195C18.5147 9.92366 18.5147 10.2748 18.1402 10.4968L12.275 13.9514C11.9106 14.1734 11.3388 14.1734 10.9744 13.9514L5.094 10.4968C4.72457 10.2748 4.72457 9.92366 5.094 9.71195L10.9744 6.24708C11.1465 6.15414 11.3742 6.09734 11.6272 6.09734ZM7.12329 9.32983C6.0302 9.30918 5.44824 10.1044 6.20226 10.5846C6.68808 10.8325 7.40162 10.8118 7.85707 10.5433C8.30241 10.2696 8.33783 9.83588 7.93298 9.54155C7.71538 9.41245 7.42692 9.335 7.12329 9.32983ZM16.1615 9.335C15.1089 9.35565 14.5775 10.1354 15.3366 10.6001C15.8224 10.8531 16.5461 10.8376 17.0066 10.564C17.457 10.2903 17.4874 9.84621 17.0673 9.55187C16.8548 9.42794 16.5663 9.34532 16.2627 9.335H16.1615ZM11.6576 9.335C11.3236 9.32983 10.9997 9.41245 10.7618 9.55187C10.2457 9.84104 10.2355 10.3316 10.7315 10.6311C11.2325 10.9306 12.0371 10.9203 12.5077 10.6001C13.2668 10.1354 12.7405 9.34532 11.6576 9.335ZM4.52215 11.4521C4.59806 11.4573 4.69421 11.4779 4.80554 11.5347L10.4481 14.8654C10.8125 15.0771 11.1009 15.5986 11.1009 16.0272V22.2082C11.1009 22.6368 10.8125 22.8123 10.4481 22.6006L4.8106 19.2752C4.43612 19.0531 4.14261 18.5419 4.14261 18.1082V11.9272C4.14261 11.607 4.29442 11.4521 4.52215 11.4521ZM18.7576 11.4521C18.9701 11.4521 19.1219 11.607 19.1219 11.9272V18.1082C19.1219 18.5419 18.8183 19.0531 18.4641 19.2752L12.8215 22.6006C12.4571 22.8123 12.1687 22.6368 12.1687 22.2082V16.0272C12.1687 15.5986 12.4571 15.0771 12.8215 14.8654L18.4641 11.5347C18.5703 11.4779 18.6766 11.4573 18.7576 11.4521ZM9.39549 14.8344H9.33982C9.07161 14.855 8.90968 15.0822 8.90968 15.4334C8.87931 15.9704 9.27404 16.6778 9.76491 16.9722C10.2609 17.2613 10.6556 17.029 10.6353 16.4609C10.6455 15.7277 9.96228 14.855 9.39549 14.8344ZM16.0198 15.9601C15.453 15.9652 14.7648 16.8482 14.7698 17.5815C14.7749 18.1185 15.1595 18.3251 15.6403 18.0411C16.1159 17.757 16.5005 17.0961 16.5056 16.5539C16.5056 16.2079 16.3386 15.9807 16.0755 15.9601H16.0198ZM5.04339 17.1219C4.77012 17.1374 4.60312 17.3646 4.60312 17.7209C4.57782 18.2631 4.97254 18.9654 5.46342 19.2597C5.95936 19.5437 6.35408 19.3113 6.33384 18.7382C6.33384 17.9894 5.6203 17.0961 5.04339 17.1219Z" fill="black"/>
</svg>
