<svg xmlns="http://www.w3.org/2000/svg" width="28" height="29" viewBox="0 0 28 29" fill="none">
  <g filter="url(#filter0_d_390_700)">
    <path d="M12.4604 2.5518e-08C11.8356 2.5518e-08 11.1183 0.16085 10.2822 0.53677C13.6794 0.925341 13.1821 4.66647 10.9026 5.33517C8.02471 6.18009 5.12434 4.26434 6.57519 0.853049C4.82951 1.70926 4.7195 4.50381 6.0062 5.89092C9.06764 9.18021 5.35361 11.489 4.48891 7.95124C2.76483 13.6217 5.50499 21 14.2338 21C25.2659 21 26.6433 4.07005 19.9193 2.24739C21.0854 4.19205 19.3428 5.45264 18.8236 5.55205C16.5661 5.99935 16.2669 -0.000451801 12.4604 2.5518e-08ZM14.1106 5.33517C14.3086 5.33517 14.5243 5.38487 14.6739 5.4662L19.7741 8.49796C20.0997 8.6832 20.0997 8.99045 19.7741 9.18473L14.6739 12.2075C14.357 12.4017 13.8598 12.4017 13.543 12.2075L8.42956 9.18473C8.10833 8.99045 8.10833 8.6832 8.42956 8.49796L13.543 5.4662C13.6926 5.38487 13.8906 5.33517 14.1106 5.33517ZM10.1942 8.1636C9.24365 8.14553 8.7376 8.84134 9.39327 9.26154C9.81572 9.47842 10.4362 9.46035 10.8322 9.2254C11.2195 8.98593 11.2503 8.60639 10.8982 8.34885C10.709 8.2359 10.4582 8.16812 10.1942 8.1636ZM18.0535 8.16812C17.1382 8.1862 16.6761 8.86845 17.3362 9.2751C17.7586 9.49649 18.3879 9.48294 18.7884 9.24347C19.18 9.004 19.2064 8.61543 18.8412 8.35789C18.6563 8.24945 18.4055 8.17716 18.1415 8.16812H18.0535ZM14.137 8.16812C13.8466 8.1636 13.565 8.2359 13.3581 8.35789C12.9093 8.61091 12.9005 9.04015 13.3317 9.30221C13.7674 9.56427 14.4671 9.55523 14.8763 9.2751C15.5364 8.86845 15.0787 8.17716 14.137 8.16812ZM7.9323 10.0206C7.99831 10.0251 8.08192 10.0432 8.17873 10.0929L13.0853 13.0072C13.4021 13.1924 13.653 13.6488 13.653 14.0238V19.4322C13.653 19.8072 13.4021 19.9608 13.0853 19.7755L8.18313 16.8658C7.8575 16.6715 7.60227 16.2242 7.60227 15.8447V10.4363C7.60227 10.1562 7.73428 10.0206 7.9323 10.0206ZM20.3109 10.0206C20.4958 10.0206 20.6278 10.1562 20.6278 10.4363V15.8447C20.6278 16.2242 20.3637 16.6715 20.0557 16.8658L15.1491 19.7755C14.8323 19.9608 14.5815 19.8072 14.5815 19.4322V14.0238C14.5815 13.6488 14.8323 13.1924 15.1491 13.0072L20.0557 10.0929C20.1481 10.0432 20.2405 10.0251 20.3109 10.0206ZM12.17 12.9801H12.1216C11.8884 12.9981 11.7475 13.197 11.7475 13.5042C11.7211 13.9741 12.0644 14.5931 12.4912 14.8506C12.9225 15.1037 13.2657 14.9003 13.2481 14.4033C13.2569 13.7617 12.6628 12.9981 12.17 12.9801ZM17.9303 13.9651C17.4374 13.9696 16.8389 14.7422 16.8433 15.3838C16.8477 15.8537 17.1822 16.0344 17.6002 15.7859C18.0139 15.5374 18.3483 14.9591 18.3527 14.4847C18.3527 14.1819 18.2075 13.9831 17.9787 13.9651H17.9303ZM8.38556 14.9817C8.14793 14.9952 8.00271 15.194 8.00271 15.5058C7.98071 15.9802 8.32395 16.5947 8.7508 16.8522C9.18205 17.1007 9.52529 16.8974 9.50769 16.3959C9.50769 15.7407 8.88721 14.9591 8.38556 14.9817Z" fill="white"/>
  </g>
  <defs>
    <filter id="filter0_d_390_700" x="0" y="0" width="28" height="29" filterUnits="userSpaceOnUse" color-interpolation-filters="sRGB">
      <feFlood flood-opacity="0" result="BackgroundImageFix"/>
      <feColorMatrix in="SourceAlpha" type="matrix" values="0 0 0 0 0 0 0 0 0 0 0 0 0 0 0 0 0 0 127 0" result="hardAlpha"/>
      <feOffset dy="4"/>
      <feGaussianBlur stdDeviation="2"/>
      <feComposite in2="hardAlpha" operator="out"/>
      <feColorMatrix type="matrix" values="0 0 0 0 0 0 0 0 0 0 0 0 0 0 0 0 0 0 0.25 0"/>
      <feBlend mode="normal" in2="BackgroundImageFix" result="effect1_dropShadow_390_700"/>
      <feBlend mode="normal" in="SourceGraphic" in2="effect1_dropShadow_390_700" result="shape"/>
    </filter>
  </defs>
</svg>