<svg xmlns="http://www.w3.org/2000/svg" width="32" height="25" viewBox="0 0 32 25" fill="none">
  <g filter="url(#filter0_d_368_498)">
    <path d="M4 2.83333C4 2.08189 4.31607 1.36122 4.87868 0.829864C5.44129 0.298511 6.20435 0 7 0H25C25.7956 0 26.5587 0.298511 27.1213 0.829864C27.6839 1.36122 28 2.08189 28 2.83333V14.1667C28 14.9181 27.6839 15.6388 27.1213 16.1701C26.5587 16.7015 25.7956 17 25 17H7C6.20435 17 5.44129 16.7015 4.87868 16.1701C4.31607 15.6388 4 14.9181 4 14.1667V2.83333ZM17.5 4.95833C17.5 5.14619 17.579 5.32636 17.7197 5.4592C17.8603 5.59204 18.0511 5.66667 18.25 5.66667H24.25C24.4489 5.66667 24.6397 5.59204 24.7803 5.4592C24.921 5.32636 25 5.14619 25 4.95833C25 4.77047 24.921 4.5903 24.7803 4.45747C24.6397 4.32463 24.4489 4.25 24.25 4.25H18.25C18.0511 4.25 17.8603 4.32463 17.7197 4.45747C17.579 4.5903 17.5 4.77047 17.5 4.95833ZM17.5 8.5C17.5 8.68786 17.579 8.86803 17.7197 9.00087C17.8603 9.13371 18.0511 9.20833 18.25 9.20833H24.25C24.4489 9.20833 24.6397 9.13371 24.7803 9.00087C24.921 8.86803 25 8.68786 25 8.5C25 8.31214 24.921 8.13197 24.7803 7.99913C24.6397 7.86629 24.4489 7.79167 24.25 7.79167H18.25C18.0511 7.79167 17.8603 7.86629 17.7197 7.99913C17.579 8.13197 17.5 8.31214 17.5 8.5ZM19 12.0417C19 12.2295 19.079 12.4097 19.2197 12.5425C19.3603 12.6754 19.5511 12.75 19.75 12.75H24.25C24.4489 12.75 24.6397 12.6754 24.7803 12.5425C24.921 12.4097 25 12.2295 25 12.0417C25 11.8538 24.921 11.6736 24.7803 11.5408C24.6397 11.408 24.4489 11.3333 24.25 11.3333H19.75C19.5511 11.3333 19.3603 11.408 19.2197 11.5408C19.079 11.6736 19 11.8538 19 12.0417ZM17.5 14.875C17.5 12.1366 14.815 9.91667 11.5 9.91667C8.371 9.91667 5.8 11.8972 5.524 14.4231C5.58751 14.749 5.76997 15.0435 6.03964 15.2555C6.30931 15.4675 6.64914 15.5835 7 15.5833H17.44C17.479 15.3524 17.5 15.1158 17.5 14.875ZM14.5 5.66667C14.5 4.91522 14.1839 4.19455 13.6213 3.6632C13.0587 3.13184 12.2956 2.83333 11.5 2.83333C10.7044 2.83333 9.94129 3.13184 9.37868 3.6632C8.81607 4.19455 8.5 4.91522 8.5 5.66667C8.5 6.41811 8.81607 7.13878 9.37868 7.67014C9.94129 8.20149 10.7044 8.5 11.5 8.5C12.2956 8.5 13.0587 8.20149 13.6213 7.67014C14.1839 7.13878 14.5 6.41811 14.5 5.66667Z" fill="white"/>
  </g>
  <defs>
    <filter id="filter0_d_368_498" x="0" y="0" width="32" height="25" filterUnits="userSpaceOnUse" color-interpolation-filters="sRGB">
      <feFlood flood-opacity="0" result="BackgroundImageFix"/>
      <feColorMatrix in="SourceAlpha" type="matrix" values="0 0 0 0 0 0 0 0 0 0 0 0 0 0 0 0 0 0 127 0" result="hardAlpha"/>
      <feOffset dy="4"/>
      <feGaussianBlur stdDeviation="2"/>
      <feComposite in2="hardAlpha" operator="out"/>
      <feColorMatrix type="matrix" values="0 0 0 0 0 0 0 0 0 0 0 0 0 0 0 0 0 0 0.25 0"/>
      <feBlend mode="normal" in2="BackgroundImageFix" result="effect1_dropShadow_368_498"/>
      <feBlend mode="normal" in="SourceGraphic" in2="effect1_dropShadow_368_498" result="shape"/>
    </filter>
  </defs>
</svg>