<svg width="27" height="28" viewBox="0 0 27 28" fill="none" xmlns="http://www.w3.org/2000/svg">
<g filter="url(#filter0_d_400_580)">
<path d="M16.2148 15.607H20.9648V16.9642H16.2148V15.607ZM17.572 18.3213H19.6077V19.6785H17.572V18.3213ZM20.9648 14.2499H19.6077C19.6077 13.5035 19.8791 12.8928 20.422 12.3499L20.7613 12.0106C21.3041 11.4678 21.6434 10.6535 21.6434 9.83918C21.6434 8.14275 20.2863 6.78561 18.5898 6.78561C16.8934 6.78561 15.5363 8.14275 15.5363 9.83918C15.5363 10.6535 15.8756 11.3999 16.4184 12.0106L16.7577 12.3499C17.3006 12.8928 17.572 13.5035 17.572 14.2499H16.2148C16.2148 13.9106 16.0791 13.5713 15.8077 13.2999L15.4684 12.9606C14.6541 12.1463 14.1791 10.9928 14.1791 9.83918C14.1791 7.39632 16.147 5.42847 18.5898 5.42847C21.0327 5.42847 23.0006 7.39632 23.0006 9.83918C23.0006 10.9928 22.5256 12.1463 21.7113 12.9606L21.372 13.2999C21.1006 13.5713 20.9648 13.9106 20.9648 14.2499ZM6.71484 13.5713H12.1434V14.9285H6.71484V13.5713Z" fill="white"/>
<path d="M10.784 12.2143C11.1588 12.2143 11.4626 11.9105 11.4626 11.5357C11.4626 11.161 11.1588 10.8572 10.784 10.8572C10.4093 10.8572 10.1055 11.161 10.1055 11.5357C10.1055 11.9105 10.4093 12.2143 10.784 12.2143Z" fill="white"/>
<path d="M6.71484 10.857H8.75056V12.2142H6.71484V10.857ZM6.71484 8.14275H11.4648V9.4999H6.71484V8.14275ZM9.42913 5.42847H14.1791V6.78561H9.42913V5.42847Z" fill="white"/>
<path d="M7.39342 6.78561C7.76818 6.78561 8.07199 6.4818 8.07199 6.10704C8.07199 5.73227 7.76818 5.42847 7.39342 5.42847C7.01865 5.42847 6.71484 5.73227 6.71484 6.10704C6.71484 6.4818 7.01865 6.78561 7.39342 6.78561Z" fill="white"/>
<path d="M13.5 2.71436H16.2143V4.0715H13.5V2.71436Z" fill="white"/>
<path d="M11.4637 4.0715C11.8385 4.0715 12.1423 3.76769 12.1423 3.39293C12.1423 3.01816 11.8385 2.71436 11.4637 2.71436C11.089 2.71436 10.7852 3.01816 10.7852 3.39293C10.7852 3.76769 11.089 4.0715 11.4637 4.0715Z" fill="white"/>
<path d="M6.71484 2.71436H9.42913V4.0715H6.71484V2.71436Z" fill="white"/>
<path d="M14.8571 17.6429H5.35714V1.35714H17.5714V4.07143H18.9286V1.35714C18.9286 0.610714 18.3179 0 17.5714 0H5.35714C4.61071 0 4 0.610714 4 1.35714V17.6429C4 18.3893 4.61071 19 5.35714 19H14.8571V17.6429Z" fill="white"/>
</g>
<defs>
<filter id="filter0_d_400_580" x="0" y="0" width="27" height="27.6785" filterUnits="userSpaceOnUse" color-interpolation-filters="sRGB">
<feFlood flood-opacity="0" result="BackgroundImageFix"/>
<feColorMatrix in="SourceAlpha" type="matrix" values="0 0 0 0 0 0 0 0 0 0 0 0 0 0 0 0 0 0 127 0" result="hardAlpha"/>
<feOffset dy="4"/>
<feGaussianBlur stdDeviation="2"/>
<feComposite in2="hardAlpha" operator="out"/>
<feColorMatrix type="matrix" values="0 0 0 0 0 0 0 0 0 0 0 0 0 0 0 0 0 0 0.25 0"/>
<feBlend mode="normal" in2="BackgroundImageFix" result="effect1_dropShadow_400_580"/>
<feBlend mode="normal" in="SourceGraphic" in2="effect1_dropShadow_400_580" result="shape"/>
</filter>
</defs>
</svg>
