<?xml version="1.0" encoding="UTF-8" standalone="no"?>
<!DOCTYPE svg PUBLIC "-//W3C//DTD SVG 1.1//EN" "http://www.w3.org/Graphics/SVG/1.1/DTD/svg11.dtd">
<svg xmlns="http://www.w3.org/2000/svg" version="1.1" viewBox="0.00 0.00 76.00 78.00">
<path fill="#FFFFFF" d="
  M 22.21 43.07
  L 14.70 38.32
  A 0.33 0.33 0.0 0 1 14.70 37.77
  L 22.06 32.94
  A 0.33 0.33 0.0 0 0 22.18 32.54
  L 18.79 24.56
  A 0.33 0.33 0.0 0 1 19.09 24.10
  L 28.00 24.15
  A 0.33 0.33 0.0 0 0 28.32 23.89
  L 30.35 15.30
  A 0.33 0.33 0.0 0 1 30.88 15.11
  L 37.93 20.73
  A 0.33 0.33 0.0 0 0 38.35 20.72
  L 45.03 14.96
  A 0.33 0.33 0.0 0 1 45.56 15.12
  L 48.08 23.87
  A 0.33 0.33 0.0 0 0 48.44 24.11
  L 57.21 23.13
  A 0.33 0.33 0.0 0 1 57.56 23.57
  L 54.34 32.08
  A 0.33 0.33 0.0 0 0 54.47 32.47
  L 61.83 37.16
  A 0.33 0.33 0.0 0 1 61.83 37.71
  L 54.62 42.46
  A 0.33 0.33 0.0 0 0 54.49 42.86
  L 57.84 51.19
  A 0.33 0.33 0.0 0 1 57.52 51.64
  L 48.84 51.11
  A 0.33 0.33 0.0 0 0 48.50 51.36
  L 46.39 60.09
  A 0.33 0.33 0.0 0 1 45.87 60.27
  L 38.83 54.91
  A 0.33 0.33 0.0 0 0 38.42 54.91
  L 31.80 60.23
  A 0.33 0.33 0.0 0 1 31.28 60.08
  L 28.50 51.97
  A 0.33 0.33 0.0 0 0 28.17 51.75
  L 19.64 52.14
  A 0.33 0.33 0.0 0 1 19.31 51.69
  L 22.35 43.46
  A 0.33 0.33 0.0 0 0 22.21 43.07
  Z"
/>
</svg>
