<?xml version="1.0" encoding="UTF-8" standalone="no"?>
<!DOCTYPE svg PUBLIC "-//W3C//DTD SVG 1.1//EN" "http://www.w3.org/Graphics/SVG/1.1/DTD/svg11.dtd">
<svg xmlns="http://www.w3.org/2000/svg" version="1.1" viewBox="0.00 0.00 65.00 74.00">
<path fill="#FFFFFF" d="
  M 56.69 36.48
  A 23.28 23.28 0.0 0 1 33.41 59.76
  A 23.28 23.28 0.0 0 1 10.13 36.48
  A 23.28 23.28 0.0 0 1 33.41 13.20
  A 23.28 23.28 0.0 0 1 56.69 36.48
  Z
  M 46.22 36.37
  A 13.06 13.06 0.0 0 0 33.16 23.31
  A 13.06 13.06 0.0 0 0 20.10 36.37
  A 13.06 13.06 0.0 0 0 33.16 49.43
  A 13.06 13.06 0.0 0 0 46.22 36.37
  Z"
/>
<circle fill="#FFFFFF" cx="33.46" cy="36.30" r="7.92"/>
</svg>
