<?xml version="1.0" encoding="UTF-8" standalone="no"?>
<!DOCTYPE svg PUBLIC "-//W3C//DTD SVG 1.1//EN" "http://www.w3.org/Graphics/SVG/1.1/DTD/svg11.dtd">
<svg xmlns="http://www.w3.org/2000/svg" version="1.1" viewBox="0.00 0.00 63.00 91.00">
<path stroke="#FFFFFF" stroke-width="2.00" fill="none" stroke-linecap="butt" vector-effect="non-scaling-stroke" d="
  M 19.01 47.09
  Q 19.19 47.42 20.41 46.84
  A 0.45 0.45 0.0 0 0 20.51 46.10
  L 15.68 41.88"
/>
<path fill="#FFFFFF" d="
  M 13.48 24.00
  C 15.27 21.67 18.24 21.21 21.01 21.05
  Q 35.04 20.26 50.64 20.71
  A 1.26 1.25 -86.8 0 1 51.86 22.08
  L 51.71 23.85
  Q 51.64 24.78 50.71 24.85
  C 37.73 25.87 26.20 25.08 13.76 24.60
  A 0.37 0.37 0.0 0 1 13.48 24.00
  Z"
/>
<path fill="#FFFFFF" d="
  M 19.01 47.09
  Q 19.19 47.42 20.41 46.84
  A 0.45 0.45 0.0 0 0 20.51 46.10
  L 15.68 41.88
  C 13.18 38.93 13.94 32.99 15.09 29.75
  Q 15.28 29.18 15.88 29.18
  L 47.35 28.98
  A 2.09 2.08 -3.7 0 1 49.43 30.80
  C 49.87 34.24 50.49 38.45 48.37 41.48
  Q 46.70 43.89 44.45 45.68
  A 0.83 0.82 43.8 0 0 44.48 46.99
  C 49.78 50.93 50.92 55.42 50.16 61.80
  A 1.79 1.79 0.0 0 1 48.45 63.38
  Q 32.07 64.11 15.69 63.18
  A 1.54 1.53 89.4 0 1 14.24 61.76
  C 14.08 59.55 13.51 57.19 14.16 55.05
  Q 15.53 50.53 19.01 47.09
  Z
  M 24.37 56.25
  Q 32.65 56.43 41.17 55.99
  Q 42.49 55.93 41.90 54.75
  C 40.74 52.41 38.27 52.55 36.00 51.77
  C 33.60 50.95 30.98 50.80 28.63 51.78
  C 26.30 52.77 24.64 52.59 22.48 54.40
  A 0.85 0.85 0.0 0 0 22.53 55.73
  Q 23.22 56.23 24.37 56.25
  Z"
/>
<path fill="#FFFFFF" d="
  M 15.68 41.88
  L 20.51 46.10
  A 0.45 0.45 0.0 0 1 20.41 46.84
  Q 19.19 47.42 19.01 47.09
  Q 19.36 46.07 18.74 45.47
  Q 17.08 43.88 15.68 41.88
  Z"
/>
<rect fill="#FFFFFF" x="12.12" y="66.85" width="39.96" height="5.18" rx="2.07"/>
</svg>
