<?xml version="1.0" encoding="UTF-8" standalone="no"?>
<!DOCTYPE svg PUBLIC "-//W3C//DTD SVG 1.1//EN" "http://www.w3.org/Graphics/SVG/1.1/DTD/svg11.dtd">
<svg xmlns="http://www.w3.org/2000/svg" version="1.1" viewBox="0.00 0.00 76.00 76.00">
<path stroke="#FFFFFF" stroke-width="2.00" fill="none" stroke-linecap="butt" vector-effect="non-scaling-stroke" d="
  M 38.13 24.40
  L 44.22 36.61
  Q 44.77 37.73 44.53 36.50
  Q 43.61 31.78 41.61 28.27"
/>
<path fill="#FFFFFF" d="
  M 38.13 24.40
  L 44.22 36.61
  Q 44.77 37.73 44.53 36.50
  Q 43.61 31.78 41.61 28.27
  Q 41.01 25.72 40.53 23.75
  C 39.77 20.64 43.89 17.53 46.26 16.45
  C 50.36 14.58 57.08 20.15 59.45 23.08
  C 63.71 28.34 61.45 41.43 56.21 45.69
  Q 48.72 51.79 41.48 58.20
  C 37.90 61.37 34.79 58.89 31.96 56.54
  Q 24.96 50.75 18.14 44.74
  C 13.55 40.70 12.70 34.86 13.47 29.00
  C 13.91 25.65 17.95 23.16 20.99 21.71
  C 25.68 19.48 29.81 20.51 34.73 22.06
  Q 37.68 22.99 38.13 24.40
  Z"
/>
<path fill="#FFFFFF" fill-opacity="0.996" d="
  M 38.13 24.40
  L 41.61 28.27
  Q 43.61 31.78 44.53 36.50
  Q 44.77 37.73 44.22 36.61
  L 38.13 24.40
  Z"
/>
</svg>
