<?xml version="1.0" standalone="no"?>
<!DOCTYPE svg PUBLIC "-//W3C//DTD SVG 20010904//EN"
 "http://www.w3.org/TR/2001/REC-SVG-20010904/DTD/svg10.dtd">
<svg version="1.0" xmlns="http://www.w3.org/2000/svg"
 width="61.000000pt" height="75.000000pt" viewBox="0 0 61.000000 75.000000"
 preserveAspectRatio="xMidYMid meet">

<g transform="translate(0.000000,75.000000) scale(0.100000,-0.100000)"
fill="#FFFFFF" stroke="none">
<path d="M245 724 c-170 -42 -221 -56 -230 -64 -27 -22 36 -390 79 -464 29
-50 72 -91 150 -145 59 -40 59 -41 88 -23 65 37 163 128 186 173 43 85 102
445 75 462 -5 4 -54 18 -109 32 -99 26 -201 38 -239 29z m5 -132 c0 -4 -22
-30 -50 -57 l-50 -49 0 -68 c0 -69 -13 -91 -24 -40 -13 60 -24 177 -18 184 7
7 107 35 130 37 6 1 12 -3 12 -7z m250 -78 c0 -30 -4 -54 -9 -54 -12 0 -44 97
-37 109 3 5 15 7 26 4 17 -5 20 -14 20 -59z m-30 -194 c0 -18 -28 -74 -47 -95
-10 -11 -40 -37 -67 -58 -48 -37 -49 -37 -78 -19 -16 9 -39 28 -51 41 l-22 24
50 -6 c45 -5 54 -2 107 34 32 22 65 51 74 64 17 26 34 33 34 15z"/>
</g>
</svg>
