<?xml version="1.0" standalone="no"?>
<!DOCTYPE svg PUBLIC "-//W3C//DTD SVG 20010904//EN"
 "http://www.w3.org/TR/2001/REC-SVG-20010904/DTD/svg10.dtd">
<svg version="1.0" xmlns="http://www.w3.org/2000/svg"
 width="61.000000pt" height="75.000000pt" viewBox="0 0 61.000000 75.000000"
 preserveAspectRatio="xMidYMid meet">

<g transform="translate(0.000000,75.000000) scale(0.100000,-0.100000)"
fill="#FFFFFF" stroke="none">
<path d="M210 724 c-160 -51 -249 -244 -182 -396 27 -62 92 -131 150 -159 71
-34 188 -33 258 3 66 34 128 105 150 170 24 74 16 181 -19 241 -75 127 -220
185 -357 141z m82 -302 c-4 -47 -2 -53 20 -61 12 -4 28 -6 35 -4 6 3 21 0 32
-7 23 -12 28 -49 10 -82 -12 -23 -67 -48 -105 -48 -65 0 -134 62 -134 121 0
34 37 88 80 117 52 35 66 27 62 -36z"/>
<path d="M94 98 c-34 -37 -56 -76 -49 -88 4 -6 95 -10 261 -10 252 0 254 0
254 21 0 12 -14 39 -32 61 -34 44 -27 43 -157 18 -50 -10 -77 -10 -130 0 -127
23 -124 23 -147 -2z"/>
</g>
</svg>
