<?xml version="1.0" standalone="no"?>
<!DOCTYPE svg PUBLIC "-//W3C//DTD SVG 20010904//EN"
 "http://www.w3.org/TR/2001/REC-SVG-20010904/DTD/svg10.dtd">
<svg version="1.0" xmlns="http://www.w3.org/2000/svg"
 width="61.000000pt" height="75.000000pt" viewBox="0 0 61.000000 75.000000"
 preserveAspectRatio="xMidYMid meet">

<g transform="translate(0.000000,75.000000) scale(0.100000,-0.100000)"
fill="#FFFFFF" stroke="none">
<path d="M275 716 c-31 -41 -112 -83 -129 -66 -16 16 -26 12 -26 -14 0 -33
-21 -47 -59 -40 l-32 7 7 -42 c5 -29 2 -47 -10 -65 -22 -34 -20 -54 9 -118 31
-68 45 -173 34 -253 -6 -43 -5 -63 4 -71 7 -6 62 -21 122 -32 l110 -21 113 23
c63 13 117 28 122 32 4 5 4 38 -1 74 -12 82 3 184 36 255 30 62 30 67 8 108
-9 18 -17 34 -16 37 0 3 3 20 6 38 l7 32 -43 -2 c-41 -3 -42 -2 -45 30 -3 34
-8 37 -31 23 -21 -13 -91 22 -127 65 l-31 36 -28 -36z m80 -220 c34 -34 41
-71 21 -113 -16 -34 -16 -40 5 -129 12 -51 19 -100 16 -107 -12 -32 -172 -31
-184 0 -3 9 4 58 15 110 20 85 20 97 7 116 -19 27 -19 60 0 97 28 54 80 66
120 26z"/>
</g>
</svg>
