<?xml version="1.0" standalone="no"?>
<!DOCTYPE svg PUBLIC "-//W3C//DTD SVG 20010904//EN"
 "http://www.w3.org/TR/2001/REC-SVG-20010904/DTD/svg10.dtd">
<svg version="1.0" xmlns="http://www.w3.org/2000/svg"
 width="61.000000pt" height="75.000000pt" viewBox="0 0 61.000000 75.000000"
 preserveAspectRatio="xMidYMid meet">

<g transform="translate(0.000000,75.000000) scale(0.100000,-0.100000)"
fill="#FFFFFF" stroke="none">
<path d="M232 705 c-87 -19 -123 -42 -149 -95 -32 -62 -31 -142 3 -223 19 -46
25 -73 22 -107 l-5 -46 114 -64 c63 -36 118 -66 123 -68 4 -2 13 11 18 28 12
33 27 37 80 18 42 -16 53 -4 71 74 10 46 17 56 51 76 47 27 49 40 14 73 -14
13 -35 37 -46 52 l-20 28 27 29 c26 28 28 32 17 68 -17 54 -69 130 -103 148
-43 22 -144 26 -217 9z m70 -77 c2 -27 10 -37 41 -51 36 -18 39 -18 64 -2 30
20 43 9 43 -38 0 -106 -137 -166 -247 -109 -44 23 -79 73 -69 98 5 12 10 12
32 -3 l27 -17 -17 31 c-11 23 -13 39 -7 56 14 36 59 67 97 67 30 0 33 -3 36
-32z"/>
<path d="M10 220 c0 -6 23 -39 50 -75 50 -62 52 -64 108 -70 31 -3 88 -13 126
-21 38 -8 71 -12 74 -10 10 11 -201 125 -305 165 -29 12 -53 16 -53 11z"/>
</g>
</svg>
