<?xml version="1.0" standalone="no"?>
<!DOCTYPE svg PUBLIC "-//W3C//DTD SVG 20010904//EN"
 "http://www.w3.org/TR/2001/REC-SVG-20010904/DTD/svg10.dtd">
<svg version="1.0" xmlns="http://www.w3.org/2000/svg"
 width="61.000000pt" height="75.000000pt" viewBox="0 0 61.000000 75.000000"
 preserveAspectRatio="xMidYMid meet">

<g transform="translate(0.000000,75.000000) scale(0.100000,-0.100000)"
fill="#FFFFFF" stroke="none">
<path d="M235 715 c-61 -8 -137 -20 -170 -28 -53 -13 -57 -15 -36 -24 15 -6
43 -5 85 4 33 8 133 16 221 19 l160 5 -90 -25 c-88 -23 -247 -76 -332 -111
-24 -10 -43 -24 -43 -32 0 -19 71 -245 80 -256 4 -5 45 -3 91 3 47 7 112 9
148 5 l63 -7 -6 -121 -7 -122 29 60 c16 33 59 101 96 152 36 51 66 98 66 106
0 22 -93 57 -210 81 l-105 20 55 17 c30 10 98 25 150 35 52 10 101 22 108 27
8 6 12 41 12 108 l0 99 -127 -1 c-71 -1 -178 -7 -238 -14z"/>
<path d="M321 127 c-1 -26 -3 -28 -31 -22 -16 4 -30 4 -30 1 0 -7 92 -77 96
-73 2 1 -5 30 -15 62 -15 45 -19 53 -20 32z"/>
<path d="M523 87 c-34 -29 -62 -55 -62 -59 -1 -8 120 31 134 43 5 6 2 9 -8 9
-19 0 -22 13 -7 41 6 10 9 19 8 19 -2 0 -31 -24 -65 -53z"/>
</g>
</svg>
