<?xml version="1.0" standalone="no"?>
<!DOCTYPE svg PUBLIC "-//W3C//DTD SVG 20010904//EN"
 "http://www.w3.org/TR/2001/REC-SVG-20010904/DTD/svg10.dtd">
<svg version="1.0" xmlns="http://www.w3.org/2000/svg"
 width="61.000000pt" height="75.000000pt" viewBox="0 0 61.000000 75.000000"
 preserveAspectRatio="xMidYMid meet">

<g transform="translate(0.000000,75.000000) scale(0.100000,-0.100000)"
fill="#FFFFFF" stroke="none">
<path d="M230 682 c-62 -60 -64 -77 -9 -86 l41 -7 -61 -30 c-46 -23 -71 -44
-100 -85 -22 -30 -51 -64 -65 -75 -14 -11 -26 -26 -26 -33 0 -18 37 -49 49
-42 5 3 18 -9 29 -26 30 -48 74 -87 129 -113 l48 -24 -42 -7 c-52 -8 -54 -21
-12 -69 47 -53 84 -70 120 -54 31 12 99 84 99 105 0 6 -19 15 -42 19 l-43 7
50 24 c56 27 97 64 127 112 11 17 24 29 29 26 12 -7 49 24 49 39 0 6 -16 27
-35 46 -19 20 -53 58 -77 85 -25 28 -64 59 -93 72 l-49 23 42 7 c23 4 42 11
42 17 0 18 -51 78 -84 98 -46 28 -61 24 -116 -29z m-28 -185 c-50 -53 -68
-167 -36 -228 8 -17 14 -33 11 -35 -6 -7 -73 70 -90 103 -14 27 -13 31 16 75
28 40 100 108 115 108 3 0 -4 -10 -16 -23z m283 -60 c48 -56 52 -77 22 -123
-23 -37 -77 -94 -77 -82 0 3 7 22 15 41 30 71 13 169 -38 226 l-22 25 32 -23
c18 -12 48 -41 68 -64z m-122 22 c56 -43 60 -148 7 -201 -67 -67 -170 -8 -170
97 0 99 94 159 163 104z m-313 -99 c0 -5 -2 -10 -4 -10 -3 0 -8 5 -11 10 -3 6
-1 10 4 10 6 0 11 -4 11 -10z m530 6 c0 -3 -4 -8 -10 -11 -5 -3 -10 -1 -10 4
0 6 5 11 10 11 6 0 10 -2 10 -4z"/>
<path d="M284 438 c-10 -18 -18 -53 -18 -78 0 -50 28 -125 44 -115 5 3 17 30
25 58 14 47 14 58 0 104 -9 29 -20 55 -25 58 -5 3 -17 -9 -26 -27z"/>
</g>
</svg>
