<?xml version="1.0" standalone="no"?>
<!DOCTYPE svg PUBLIC "-//W3C//DTD SVG 20010904//EN"
 "http://www.w3.org/TR/2001/REC-SVG-20010904/DTD/svg10.dtd">
<svg version="1.0" xmlns="http://www.w3.org/2000/svg"
 width="61.000000pt" height="75.000000pt" viewBox="0 0 61.000000 75.000000"
 preserveAspectRatio="xMidYMid meet">

<g transform="translate(0.000000,75.000000) scale(0.100000,-0.100000)"
fill="#FFFFFF" stroke="none">
<path d="M168 711 c-73 -29 -104 -57 -137 -123 -33 -66 -34 -94 -5 -171 17
-45 18 -93 3 -136 -8 -24 -9 -39 -1 -56 12 -25 83 -67 117 -69 25 -1 31 -34
11 -61 -13 -17 -12 -23 2 -47 l16 -28 132 0 132 0 12 29 c8 21 9 35 1 49 -16
30 -14 65 3 59 20 -8 113 38 126 63 10 18 9 33 -4 75 -16 48 -16 55 0 96 27
70 29 149 6 196 -30 57 -92 109 -153 127 -72 22 -201 20 -261 -3z m92 -100 c0
-5 -12 -37 -26 -70 -22 -51 -24 -63 -14 -76 16 -19 56 -15 52 4 -3 17 26 51
44 51 7 0 16 -16 20 -35 7 -38 32 -47 55 -19 11 13 8 26 -19 80 -36 72 -29 88
26 60 72 -37 89 -101 39 -154 -19 -21 -28 -23 -67 -17 -56 8 -74 8 -131 0 -43
-7 -47 -5 -72 25 -31 36 -34 66 -11 99 28 39 104 77 104 52z m-3 -263 c27 -25
29 -45 7 -76 -27 -39 -69 -54 -114 -42 -52 14 -73 45 -61 88 15 50 19 52 83
52 50 0 66 -4 85 -22z m253 3 c5 -11 10 -35 10 -54 0 -43 -35 -69 -93 -71 -32
-1 -44 5 -68 32 -34 38 -36 60 -9 90 17 18 32 22 85 22 53 0 66 -3 75 -19z
m-166 -155 c4 -14 -1 -27 -16 -39 -42 -35 -71 -3 -49 56 9 24 13 26 35 16 13
-6 27 -21 30 -33z"/>
</g>
</svg>
