<?xml version="1.0" standalone="no"?>
<!DOCTYPE svg PUBLIC "-//W3C//DTD SVG 20010904//EN"
 "http://www.w3.org/TR/2001/REC-SVG-20010904/DTD/svg10.dtd">
<svg version="1.0" xmlns="http://www.w3.org/2000/svg"
 width="61.000000pt" height="75.000000pt" viewBox="0 0 61.000000 75.000000"
 preserveAspectRatio="xMidYMid meet">

<g transform="translate(0.000000,75.000000) scale(0.100000,-0.100000)"
fill="#FFFFFF" stroke="none">
<path d="M243 722 c32 -34 34 -51 7 -85 -26 -32 -26 -73 -1 -87 29 -15 41 -12
41 10 0 12 18 31 50 52 27 18 52 38 55 46 2 7 0 10 -5 7 -6 -3 -10 -2 -10 4 0
5 5 13 10 16 17 10 11 44 -9 55 -11 5 -52 10 -92 10 l-73 0 27 -28z"/>
<path d="M400 612 c0 -5 28 -14 61 -20 34 -6 73 -19 86 -28 23 -14 24 -18 10
-31 -25 -25 -126 -43 -249 -43 -236 0 -341 52 -192 96 65 19 70 29 10 21 -49
-7 -113 -34 -120 -52 -5 -15 9 -94 20 -105 35 -35 272 -59 406 -41 144 19 168
36 168 116 0 43 -22 59 -110 79 -75 18 -90 19 -90 8z"/>
<path d="M40 390 c0 -13 77 -124 103 -148 31 -29 129 -46 222 -37 67 7 72 9
115 55 25 27 56 67 69 91 l23 42 -33 -7 c-143 -28 -325 -29 -445 -1 -30 7 -54
9 -54 5z"/>
<path d="M185 165 c-19 -63 -19 -63 41 -71 53 -6 200 -2 208 7 2 2 1 18 -1 36
l-5 32 -120 3 c-75 2 -122 -1 -123 -7z"/>
<path d="M84 69 c-44 -13 -59 -32 -38 -50 14 -11 68 -14 260 -14 213 0 245 2
260 17 15 15 15 17 -9 33 -31 20 -75 22 -146 7 -82 -18 -179 -14 -281 12 -8 2
-29 0 -46 -5z"/>
</g>
</svg>
